<?xml version="1.0" encoding="utf-8"?>
<!-- Generator: Adobe Illustrator 27.5.0, SVG Export Plug-In . SVG Version: 6.00 Build 0)  -->
<svg version="1.1" xmlns="http://www.w3.org/2000/svg" xmlns:xlink="http://www.w3.org/1999/xlink" x="0px" y="0px"
	 viewBox="0 0 500 500" style="enable-background:new 0 0 500 500;" xml:space="preserve">
<g id="BACKGROUND">
	<rect id="XMLID_117_" style="fill:#E6FDFF;" width="500" height="500"/>
</g>
<g id="OBJECTS">
	<g id="XMLID_124_">
		<path id="XMLID_127_" style="fill:#FFC84D;" d="M154.04,103.619l-31.207,74.936h12.707v-25.227h39.43v25.227h14.949v30.834
			h-14.949v25.415h-39.43v-25.415H79.665v-28.031l33.638-77.739H154.04z"/>
		<path id="XMLID_129_" style="fill:#FFC84D;" d="M301.111,169.212c0,42.981-18.874,66.714-52.885,66.714
			c-34.385,0-53.073-23.732-53.073-66.714c0-42.981,18.688-66.714,53.073-66.714C282.237,102.498,301.111,126.231,301.111,169.212z
			 M236.078,169.212c0,27.47,2.804,37.561,12.148,37.561c9.158,0,11.96-10.091,11.96-37.561c0-27.657-2.802-37.562-11.96-37.562
			C238.882,131.65,236.078,141.555,236.078,169.212z"/>
		<path id="XMLID_132_" style="fill:#FFC84D;" d="M384.646,103.619l-31.207,74.936h12.706v-25.227h39.43v25.227h14.95v30.834h-14.95
			v25.415h-39.43v-25.415h-55.874v-28.031l33.636-77.739H384.646z"/>
	</g>
	<ellipse id="XMLID_109_" style="fill:#B3EFF4;" cx="221.512" cy="374.727" rx="26.904" ry="10.116"/>
	<ellipse id="XMLID_134_" style="fill:#B3EFF4;" cx="280.012" cy="374.727" rx="26.904" ry="10.116"/>
	<g id="XMLID_119_">
		<path id="XMLID_123_" style="fill:none;stroke:#485F66;stroke-miterlimit:10;" d="M500,314.311c0,0-111.795,17.346-128.448-29.836
			c-16.066-45.521-16.511-81.152-26.804-90.148"/>
		<path id="XMLID_81_" style="fill:none;stroke:#485F66;stroke-miterlimit:10;" d="M0,314.311c0,0,111.985,17.346,128.638-29.836
			c16.066-45.521,16.511-81.152,26.804-90.148"/>
		<g id="XMLID_56_">
			<polygon id="XMLID_103_" style="fill:#395156;" points="277.747,330.816 273.124,361.735 262.892,361.735 258.261,330.816 			"/>
			<polygon id="XMLID_96_" style="fill:#485F66;" points="273.14,330.816 268.517,361.735 262.892,361.735 258.261,330.816 			"/>
			<polygon id="XMLID_51_" style="fill:#395156;" points="271.785,380.131 289.183,375.756 273.774,361.043 262.937,361.043 
				262.937,366.113 			"/>
			<polygon id="XMLID_102_" style="fill:#395156;" points="276.128,317.572 263.229,319.647 262.435,319.775 256.699,320.696 
				256.522,319.999 246.699,281.573 254.239,280.571 255.032,280.467 265.392,279.097 269.839,278.504 			"/>
			<polygon id="XMLID_91_" style="fill:#485F66;" points="271.585,317.572 258.686,319.647 257.892,319.775 256.522,319.999 
				246.699,281.573 254.239,280.571 255.032,280.467 265.392,279.097 			"/>
			
				<rect id="XMLID_55_" x="255.963" y="317.701" transform="matrix(-0.9873 0.159 -0.159 -0.9873 580.6577 594.0627)" style="fill:#395156;" width="21.213" height="5.106"/>
			<polygon id="XMLID_104_" style="fill:#395156;" points="278.436,325.976 275.247,326.321 257.348,328.26 256.795,323.18 
				274.694,321.241 277.883,320.897 			"/>
			
				<rect id="XMLID_88_" x="257.019" y="322.195" transform="matrix(0.9942 -0.1077 0.1077 0.9942 -33.4261 30.5372)" style="fill:#485F66;" width="18.004" height="5.11"/>
			
				<rect id="XMLID_53_" x="257.156" y="326.897" transform="matrix(-0.9967 0.0817 -0.0817 -0.9967 561.5367 635.9326)" style="fill:#395156;" width="21.213" height="5.106"/>
			<polygon id="XMLID_67_" style="fill:#485F66;" points="289.183,375.756 289.183,379.534 271.785,380.131 			"/>
			<g id="XMLID_80_">
				<polygon id="XMLID_89_" style="fill:#395156;" points="268.18,366.141 267.379,366.214 263.91,326.818 262.435,319.775 
					254.239,280.571 255.032,280.467 263.229,319.647 264.703,326.697 				"/>
			</g>
			<polygon id="XMLID_107_" style="fill:#395156;" points="239.408,330.816 234.785,361.735 224.546,361.735 219.923,330.816 			"/>
			<polygon id="XMLID_99_" style="fill:#485F66;" points="235.667,330.816 231.044,361.735 224.546,361.735 219.923,330.816 			"/>
			<polygon id="XMLID_40_" style="fill:#395156;" points="225.887,380.131 208.489,375.756 224.433,360.908 234.736,361.043 
				234.736,366.113 			"/>
			<polygon id="XMLID_105_" style="fill:#395156;" points="251.274,281.573 241.275,320.696 237.485,320.087 236.244,319.887 
				235.458,319.759 221.838,317.572 228.047,279.017 228.127,278.504 243.647,280.563 244.448,280.667 			"/>
			<polygon id="XMLID_86_" style="fill:#485F66;" points="247.332,281.573 237.485,320.087 236.244,319.887 235.458,319.759 
				221.838,317.572 228.047,279.017 239.705,280.563 240.506,280.667 			"/>
			<polygon id="XMLID_94_" style="fill:#395156;" points="241.98,319.422 241.171,324.462 220.227,321.089 221.036,316.049 
				235.739,318.421 236.524,318.541 			"/>
			<polygon id="XMLID_108_" style="fill:#395156;" points="240.875,323.18 240.33,328.26 236.764,327.875 219.242,325.976 
				219.786,320.897 237.309,322.795 			"/>
			<polygon id="XMLID_98_" style="fill:#485F66;" points="237.309,322.795 236.764,327.875 219.242,325.976 219.786,320.897 			"/>
			
				<rect id="XMLID_47_" x="219.303" y="326.897" transform="matrix(0.9967 0.0817 -0.0817 0.9967 27.6731 -17.6755)" style="fill:#395156;" width="21.213" height="5.106"/>
			<polygon id="XMLID_66_" style="fill:#485F66;" points="208.489,375.756 208.489,379.501 225.887,380.131 			"/>
			<g id="XMLID_77_">
				<polygon id="XMLID_93_" style="fill:#395156;" points="233.64,330.816 234.441,330.816 231.717,361.735 230.915,361.735 				"/>
				<polygon id="XMLID_92_" style="fill:#395156;" points="244.448,280.667 236.524,318.541 235.739,318.421 243.647,280.563 				
					"/>
			</g>
			<rect id="XMLID_64_" x="247.699" y="97.617" style="fill:#6D8189;" width="1.252" height="19.43"/>
			<path id="XMLID_63_" style="fill:#485F66;" d="M254.359,122.589h-11.267v-1.026c0-3.111,2.522-5.634,5.634-5.634l0,0
				c3.111,0,5.634,2.522,5.634,5.634V122.589z"/>
			
				<rect id="XMLID_62_" x="314.674" y="189.949" transform="matrix(-0.5697 -0.8218 0.8218 -0.5697 331.3517 588.0736)" style="fill:#485F66;" width="9.882" height="34.701"/>
			<polygon id="XMLID_61_" style="fill:#485F66;" points="269.378,216.023 301.469,223.826 304.336,213.357 267.527,197.786 			"/>
			<path id="XMLID_60_" style="fill:#6D8189;" d="M297.473,218.284c0,3.208,2.601,5.809,5.809,5.809
				c3.208,0,5.809-2.601,5.809-5.809c0-3.208-2.601-5.809-5.809-5.809C300.074,212.475,297.473,215.076,297.473,218.284z"/>
			<path id="XMLID_52_" style="fill:#485F66;" d="M299.843,218.284c0,1.899,1.539,3.439,3.438,3.439c1.899,0,3.439-1.54,3.439-3.439
				c0-1.899-1.539-3.439-3.439-3.439C301.383,214.846,299.843,216.385,299.843,218.284z"/>
			<path id="XMLID_59_" style="fill:#6D8189;" d="M336.243,180.921l-3.511,3.714c-3.984,4.214-3.796,10.863,0.418,14.846
				c4.214,3.984,10.862,3.797,14.846-0.418l3.511-3.715l-4.004-3.785l-3.381,3.577c-1.896,2.006-5.051,2.094-7.057,0.198
				c-2.006-1.896-2.102-5.058-0.206-7.064l3.381-3.577L336.243,180.921z"/>
			
				<rect id="XMLID_58_" x="172.293" y="189.949" transform="matrix(0.5697 -0.8218 0.8218 0.5697 -94.1076 234.8449)" style="fill:#485F66;" width="9.882" height="34.701"/>
			<polygon id="XMLID_57_" style="fill:#485F66;" points="227.471,216.023 195.379,223.826 192.512,213.357 229.321,198.229 			"/>
			<path id="XMLID_100_" style="fill:#63797F;" d="M268.38,127.715v47.857c0,5.224-4.238,9.462-9.462,9.462h-20.135
				c-5.224,0-9.462-4.238-9.462-9.462V129.99c0-4.815,3.613-8.862,8.397-9.398l16.834-1.899l3.309-0.377
				C263.469,117.683,268.38,122.074,268.38,127.715z"/>
			<path id="XMLID_97_" style="fill:#6D8189;" d="M261.169,127.715v47.857c0,5.224-4.238,9.462-9.462,9.462h-12.924
				c-5.224,0-9.462-4.238-9.462-9.462V129.99c0-4.815,3.613-8.862,8.397-9.398l16.834-1.899
				C258.357,119.887,261.169,123.436,261.169,127.715z"/>
			<path id="XMLID_45_" style="fill:#485F66;" d="M255.828,189.908h-14.956c-0.516,0-0.935-0.419-0.935-0.935v-3.071
				c0-0.516,0.419-0.935,0.935-0.935h14.956c0.516,0,0.935,0.419,0.935,0.935v3.071
				C256.763,189.489,256.344,189.908,255.828,189.908z"/>
			<path id="XMLID_44_" style="fill:#395156;" d="M254.758,194.515h-12.817c-0.48,0-0.869-0.389-0.869-0.869v-3.202
				c0-0.48,0.389-0.869,0.869-0.869h12.817c0.48,0,0.87,0.389,0.87,0.869v3.202C255.628,194.126,255.238,194.515,254.758,194.515z"
				/>
			<path id="XMLID_43_" style="fill:#485F66;" d="M255.544,199.022h-14.389c-0.507,0-0.918-0.411-0.918-0.918v-3.105
				c0-0.507,0.411-0.918,0.918-0.918h14.389c0.507,0,0.918,0.411,0.918,0.918v3.105
				C256.462,198.611,256.051,199.022,255.544,199.022z"/>
			<path id="XMLID_112_" style="fill:#63797F;" d="M276.008,209.735l-1.915,40.534l-0.04,0.801l-1.122,23.7l-0.313,6.706
				l-0.497,10.456H225.98l-0.497-10.456l-0.313-6.706l-1.314-27.778l-0.04-0.801l-1.723-36.455
				c-0.32-6.674,4.447-12.283,10.44-12.283h33.034C271.561,197.453,276.329,203.061,276.008,209.735z"/>
			<path id="XMLID_113_" style="fill:#6D8189;" d="M265.993,209.735l-1.915,40.534l-0.04,0.801l-1.122,23.7l-0.313,6.706
				l-0.497,10.456H225.98l-0.497-10.456l-0.313-6.706l-1.314-27.778l-0.04-0.801l-1.723-36.455
				c-0.32-6.674,4.447-12.283,10.44-12.283h23.019C261.546,197.453,266.313,203.061,265.993,209.735z"/>
			<path id="XMLID_39_" style="fill:#6D8189;" d="M199.375,218.284c0,3.208-2.601,5.809-5.809,5.809
				c-3.208,0-5.809-2.601-5.809-5.809c0-3.208,2.601-5.809,5.809-5.809C196.775,212.475,199.375,215.076,199.375,218.284z"/>
			<circle id="XMLID_48_" style="fill:#485F66;" cx="193.567" cy="218.284" r="2.954"/>
			<path id="XMLID_38_" style="fill:#6D8189;" d="M160.605,180.921l3.511,3.714c3.984,4.214,3.796,10.863-0.418,14.846
				c-4.214,3.984-10.862,3.797-14.846-0.418l-3.511-3.715l4.004-3.785l3.381,3.577c1.896,2.006,5.051,2.094,7.057,0.198
				c2.006-1.896,2.102-5.058,0.206-7.064l-3.381-3.577L160.605,180.921z"/>
			<path id="XMLID_33_" style="fill:#FFC84D;" d="M250.136,96.85c0,1.023-0.83,1.853-1.853,1.853c-1.023,0-1.853-0.83-1.853-1.853
				c0-1.023,0.83-1.853,1.853-1.853C249.306,94.997,250.136,95.826,250.136,96.85z"/>
			<path id="XMLID_68_" style="fill:#485F66;" d="M261.47,168.008c-8.68-5.408-17.36,5.408-26.04,0c0-0.901,0-1.803,0-2.704
				c8.68,5.408,17.36-5.408,26.04,0C261.47,166.205,261.47,167.107,261.47,168.008z"/>
			<g id="XMLID_75_">
				
					<ellipse id="XMLID_72_" transform="matrix(0.7071 -0.7071 0.7071 0.7071 -34.2964 212.7553)" style="fill:#63797F;" cx="239.67" cy="147.777" rx="9.214" ry="9.214"/>
				
					<ellipse id="XMLID_74_" transform="matrix(0.2307 -0.973 0.973 0.2307 54.31 364.2438)" style="fill:#63797F;" cx="257.497" cy="147.777" rx="9.214" ry="9.214"/>
				<rect id="XMLID_73_" x="239.587" y="138.563" style="fill:#63797F;" width="18.303" height="18.416"/>
			</g>
			<rect id="XMLID_65_" x="237.734" y="142.97" style="fill:#F7BC14;" width="4.206" height="9.715"/>
			<rect id="XMLID_41_" x="238.184" y="143.721" style="fill:#FFC84D;" width="3.305" height="8.212"/>
			<rect id="XMLID_69_" x="256.062" y="142.97" style="fill:#F7BC14;" width="4.207" height="9.715"/>
			<g id="XMLID_49_">
				<polygon id="XMLID_70_" style="fill:#485F66;" points="233.687,141.457 232.426,139.765 242.782,131.363 244.882,135.008 				
					"/>
				<polygon id="XMLID_71_" style="fill:#485F66;" points="264.319,141.457 265.58,139.765 255.224,131.363 253.124,135.008 				"/>
			</g>
			<rect id="XMLID_76_" x="231.191" y="212.876" style="fill:#63797F;" width="35.12" height="22.034"/>
			<rect id="XMLID_54_" x="234.596" y="215.013" style="fill:#485F66;" width="28.309" height="17.76"/>
			<rect id="XMLID_138_" x="237.168" y="218.583" style="fill:#FFC84D;" width="23.165" height="1.119"/>
			<rect id="XMLID_140_" x="240.793" y="221.667" style="fill:#FFC84D;" width="15.915" height="1.119"/>
			<rect id="XMLID_141_" x="239.043" y="224.417" style="fill:#FFC84D;" width="19.415" height="1.119"/>
			<g id="XMLID_78_">
				<polygon id="XMLID_87_" style="fill:#485F66;" points="274.093,250.269 274.053,251.07 254.824,251.07 254.824,241.319 
					237.798,241.319 237.798,246.992 223.857,246.992 223.817,246.191 236.997,246.191 236.997,240.518 255.625,240.518 
					255.625,250.269 				"/>
			</g>
			<circle id="XMLID_42_" style="fill:#485F66;" cx="237.4" cy="246.394" r="1.469"/>
			<path id="XMLID_83_" style="fill:#485F66;" d="M238.401,240.785c0,0.553-0.448,1.002-1.001,1.002s-1.002-0.448-1.002-1.002
				c0-0.553,0.448-1.002,1.002-1.002S238.401,240.232,238.401,240.785z"/>
			<path id="XMLID_84_" style="fill:#485F66;" d="M256.229,240.785c0,0.553-0.448,1.002-1.002,1.002
				c-0.553,0-1.002-0.448-1.002-1.002c0-0.553,0.448-1.002,1.002-1.002C255.78,239.784,256.229,240.232,256.229,240.785z"/>
			<path id="XMLID_85_" style="fill:#485F66;" d="M256.229,250.4c0,0.553-0.448,1.001-1.002,1.001c-0.553,0-1.002-0.448-1.002-1.001
				s0.448-1.001,1.002-1.001C255.78,249.398,256.229,249.847,256.229,250.4z"/>
			<rect id="XMLID_50_" x="256.479" y="143.721" style="fill:#FFC84D;" width="3.305" height="8.212"/>
			<rect id="XMLID_46_" x="224.514" y="281.38" style="fill:#395156;" width="48.874" height="14.722"/>
			<rect id="XMLID_116_" x="224.514" y="281.38" style="fill:#485F66;" width="32.272" height="14.722"/>
			<polygon id="XMLID_106_" style="fill:#63797F;" points="272.931,274.77 272.619,281.477 225.483,281.477 225.171,274.77 			"/>
		</g>
		<path id="XMLID_110_" style="fill:none;stroke:#485F66;stroke-miterlimit:10;" d="M155.442,194.327
			c0.376-0.328,0.764-0.621,1.167-0.878c11.449-7.286,11.188,20.555,11.188,20.555"/>
		<g id="XMLID_79_">
			<g id="XMLID_101_">
				<rect id="XMLID_82_" x="165.415" y="218.201" style="fill:#485F66;" width="1.171" height="4.326"/>
				<g id="XMLID_90_">
					<rect id="XMLID_95_" x="169.416" y="218.201" style="fill:#485F66;" width="1.171" height="4.326"/>
				</g>
			</g>
			<path id="XMLID_120_" style="fill:#485F66;" d="M172.299,216.477v3.122h-8.587v-3.122c0-2.373,1.915-4.299,4.288-4.299
				c1.187,0,2.259,0.479,3.039,1.259c0.104,0.104,0.208,0.219,0.302,0.333C171.945,214.51,172.299,215.457,172.299,216.477z"/>
			<path id="XMLID_118_" style="fill:#6D8189;" d="M172.299,216.477v3.122h-7.358v-2.082c0-2.373,1.925-4.298,4.298-4.298
				c0.76,0,1.478,0.198,2.102,0.552C171.945,214.51,172.299,215.457,172.299,216.477z"/>
		</g>
		<path id="XMLID_122_" style="fill:none;stroke:#485F66;stroke-miterlimit:10;" d="M344.749,194.327
			c-0.376-0.328-0.764-0.621-1.167-0.878c-11.449-7.286-11.189,20.555-11.189,20.555"/>
		<g id="XMLID_111_">
			<path id="XMLID_115_" style="fill:#485F66;" d="M327.891,216.477v3.122h8.586v-3.122c0-2.373-1.915-4.299-4.288-4.299
				c-1.187,0-2.258,0.479-3.039,1.259c-0.104,0.104-0.208,0.219-0.302,0.333C328.245,214.51,327.891,215.457,327.891,216.477z"/>
			<path id="XMLID_114_" style="fill:#6D8189;" d="M327.891,216.477v3.122h7.358v-2.082c0-2.373-1.926-4.298-4.298-4.298
				c-0.76,0-1.478,0.198-2.102,0.552C328.245,214.51,327.891,215.457,327.891,216.477z"/>
		</g>
	</g>
	<rect id="XMLID_27_" x="134.814" y="394.38" style="fill:none;" width="230.563" height="20.035"/>
	<text id="XMLID_125_" transform="matrix(1 0 0 1 142.7358 406.8076)"><tspan x="0" y="0" style="fill:#485F66; font-family:'Montserrat-Bold'; font-size:16.7503px;">Error!</tspan><tspan x="48.709" y="0" style="fill:#485F66; font-family:'Montserrat-Regular'; font-size:16.7503px;"> Страницы не найдена</tspan></text>
	<g id="XMLID_137_">
		<path id="XMLID_136_" style="fill:#395156;" d="M274.974,452.562h-49.758c-7.482,0-13.548-6.066-13.548-13.548v0
			c0-7.482,6.066-13.548,13.548-13.548h49.758c7.482,0,13.548,6.066,13.548,13.548v0
			C288.522,446.497,282.457,452.562,274.974,452.562z"/>
		<rect id="XMLID_22_" x="225.38" y="432.528" style="fill:none;" width="49.43" height="12.973"/>
		<text id="XMLID_135_" transform="matrix(1 0 0 1 225.3804 444.957)"><tspan x="0" y="0" style="fill:#CFF9FF; font-family:'Montserrat-Bold'; font-size:16.7503px; letter-spacing:5;">ba</tspan><tspan x="37.153" y="0" style="fill:#CFF9FF; font-family:'Montserrat-Bold'; font-size:16.7503px;">c</tspan></text>
	</g>
	<polygon id="XMLID_139_" style="fill:#FFC84D;" points="164.003,237.43 162.96,237.502 162.762,235.208 161.711,238.605 
		162.755,238.533 162.952,240.827 	"/>
	<polygon id="XMLID_143_" style="fill:#FFC84D;" points="182.516,226.963 181.488,228.169 178.796,225.953 181.36,230.688 
		182.388,229.483 185.081,231.699 	"/>
	<polygon id="XMLID_144_" style="fill:#FFC84D;" points="178.099,238.334 176.372,239.292 174.197,235.53 175.123,242.178 
		176.849,241.219 179.025,244.981 	"/>
	<polygon id="XMLID_147_" style="fill:#FFC84D;" points="322.637,225.151 321.75,224.598 322.933,222.623 320.092,224.761 
		320.98,225.314 319.797,227.288 	"/>
	<polygon id="XMLID_146_" style="fill:#FFC84D;" points="343.774,227.508 342.235,227.883 341.35,224.51 340.655,229.85 
		342.194,229.475 343.079,232.848 	"/>
	<polygon id="XMLID_145_" style="fill:#FFC84D;" points="333.534,234.138 331.574,233.904 332.013,229.58 328.871,235.511 
		330.831,235.745 330.392,240.069 	"/>
</g>

</svg>
